<svg width="110" height="110" viewBox="0 0 110 110" fill="none" xmlns="http://www.w3.org/2000/svg">
<g filter="url(#filter0_dd_103_2)">
<circle cx="55" cy="55" r="25" fill="#1A1C20"/>
<circle cx="55" cy="55" r="25" stroke="url(#paint0_linear_103_2)" stroke-width="3"/>
</g>
<path d="M46 60H50.5C53 60 55 57.2 55 54C55 50.8 57.5 49 59 49H66M66 49L63 46M66 49L63 51.5" stroke="white" stroke-linecap="round"/>
<path d="M63 57.5L66 60M66 60L63 63M66 60H59.5C58 60 57 59.5 56 58" stroke="white" stroke-linecap="round"/>
<path d="M46 49H50.5C52.5 49 53.5 50.5 54 51.5" stroke="white" stroke-linecap="round"/>
<defs>
<filter id="filter0_dd_103_2" x="0.5" y="0.5" width="109" height="109" filterUnits="userSpaceOnUse" color-interpolation-filters="sRGB">
<feFlood flood-opacity="0" result="BackgroundImageFix"/>
<feColorMatrix in="SourceAlpha" type="matrix" values="0 0 0 0 0 0 0 0 0 0 0 0 0 0 0 0 0 0 127 0" result="hardAlpha"/>
<feOffset dx="8" dy="8"/>
<feGaussianBlur stdDeviation="10"/>
<feColorMatrix type="matrix" values="0 0 0 0 0 0 0 0 0 0 0 0 0 0 0 0 0 0 0.353065 0"/>
<feBlend mode="normal" in2="BackgroundImageFix" result="effect1_dropShadow_103_2"/>
<feColorMatrix in="SourceAlpha" type="matrix" values="0 0 0 0 0 0 0 0 0 0 0 0 0 0 0 0 0 0 127 0" result="hardAlpha"/>
<feOffset dx="-8" dy="-8"/>
<feGaussianBlur stdDeviation="10"/>
<feColorMatrix type="matrix" values="0 0 0 0 0.477462 0 0 0 0 0.525621 0 0 0 0 0.593042 0 0 0 0.101672 0"/>
<feBlend mode="normal" in2="effect1_dropShadow_103_2" result="effect2_dropShadow_103_2"/>
<feBlend mode="normal" in="SourceGraphic" in2="effect2_dropShadow_103_2" result="shape"/>
</filter>
<linearGradient id="paint0_linear_103_2" x1="-2.99718" y1="40.9467" x2="40.2066" y2="95.3405" gradientUnits="userSpaceOnUse">
<stop stop-color="#41464B"/>
<stop offset="1" stop-color="#0E1013"/>
</linearGradient>
</defs>
</svg>
