<svg width="110" height="110" viewBox="0 0 110 110" fill="none" xmlns="http://www.w3.org/2000/svg">
<g filter="url(#filter0_dd_103_24)">
<circle cx="55" cy="55" r="25" fill="#1A1C20"/>
<circle cx="55" cy="55" r="25" stroke="url(#paint0_linear_103_24)" stroke-width="3"/>
</g>
<path d="M61 51.5L64 49M64 49L61 46M64 49H49.5C46.5 49 44 51 44 54C44 56 44 56.8333 44 57" stroke="white" stroke-linecap="round"/>
<path d="M49 58.5L46 61M46 61L49 64M46 61H60.5C63.5 61 66 59 66 56C66 54 66 53.1667 66 53" stroke="white" stroke-linecap="round"/>
<defs>
<filter id="filter0_dd_103_24" x="0.5" y="0.5" width="109" height="109" filterUnits="userSpaceOnUse" color-interpolation-filters="sRGB">
<feFlood flood-opacity="0" result="BackgroundImageFix"/>
<feColorMatrix in="SourceAlpha" type="matrix" values="0 0 0 0 0 0 0 0 0 0 0 0 0 0 0 0 0 0 127 0" result="hardAlpha"/>
<feOffset dx="8" dy="8"/>
<feGaussianBlur stdDeviation="10"/>
<feColorMatrix type="matrix" values="0 0 0 0 0 0 0 0 0 0 0 0 0 0 0 0 0 0 0.353065 0"/>
<feBlend mode="normal" in2="BackgroundImageFix" result="effect1_dropShadow_103_24"/>
<feColorMatrix in="SourceAlpha" type="matrix" values="0 0 0 0 0 0 0 0 0 0 0 0 0 0 0 0 0 0 127 0" result="hardAlpha"/>
<feOffset dx="-8" dy="-8"/>
<feGaussianBlur stdDeviation="10"/>
<feColorMatrix type="matrix" values="0 0 0 0 0.477462 0 0 0 0 0.525621 0 0 0 0 0.593042 0 0 0 0.101672 0"/>
<feBlend mode="normal" in2="effect1_dropShadow_103_24" result="effect2_dropShadow_103_24"/>
<feBlend mode="normal" in="SourceGraphic" in2="effect2_dropShadow_103_24" result="shape"/>
</filter>
<linearGradient id="paint0_linear_103_24" x1="-2.99718" y1="40.9467" x2="40.2066" y2="95.3405" gradientUnits="userSpaceOnUse">
<stop stop-color="#41464B"/>
<stop offset="1" stop-color="#0E1013"/>
</linearGradient>
</defs>
</svg>
